<svg xmlns="http://www.w3.org/2000/svg" xmlns:xlink="http://www.w3.org/1999/xlink" version="1.1" x="0px" y="0px" viewBox="0 0 65 81.25" style="enable-background:new 0 0 65 65;" xml:space="preserve"><g><g><path d="M53.586,11.54h-3.097V9.983c0-0.387-0.325-0.712-0.734-0.712c-0.4,0-0.725,0.325-0.725,0.712v1.556h-5.526V9.983    c0-0.387-0.323-0.712-0.723-0.712c-0.409,0-0.734,0.325-0.734,0.712v1.556h-5.526V9.983c0-0.387-0.323-0.712-0.723-0.712    c-0.4,0-0.723,0.325-0.723,0.712v1.556h-5.526V9.983c0-0.387-0.334-0.712-0.734-0.712s-0.723,0.325-0.723,0.712v1.556h-5.526    V9.983c0-0.387-0.336-0.712-0.734-0.712c-0.4,0-0.723,0.325-0.723,0.712v1.556h-5.526V9.983c0-0.387-0.325-0.712-0.734-0.712    c-0.4,0-0.725,0.325-0.725,0.712v1.556h-2.719c-1.609,0-2.905,1.315-2.905,2.914v38.36c0,1.598,1.295,2.916,2.905,2.916h42.182    c1.607,0,2.914-1.317,2.914-2.916v-38.36C56.5,12.855,55.194,11.54,53.586,11.54z M53.586,54.281H11.405    c-0.798,0-1.457-0.668-1.457-1.468V19.871h0.367c0.409,0,0.734-0.303,0.734-0.712c0-0.411-0.325-0.734-0.734-0.734H9.948v-3.972    c0-0.798,0.659-1.446,1.457-1.446h2.719v1.554c0,0.389,0.325,0.712,0.725,0.712c0.409,0,0.734-0.323,0.734-0.712v-1.554h5.526    v1.554c0,0.389,0.323,0.712,0.723,0.712c0.398,0,0.734-0.323,0.734-0.712v-1.554h5.526v1.554c0,0.389,0.323,0.712,0.723,0.712    s0.734-0.323,0.734-0.712v-1.554h5.526v1.554c0,0.389,0.323,0.712,0.723,0.712c0.4,0,0.723-0.323,0.723-0.712v-1.554h5.526v1.554    c0,0.389,0.325,0.712,0.734,0.712c0.4,0,0.723-0.323,0.723-0.712v-1.554h5.526v1.554c0,0.389,0.325,0.712,0.725,0.712    c0.409,0,0.734-0.323,0.734-0.712v-1.554h3.097c0.809,0,1.457,0.648,1.457,1.446v3.972h-0.367c-0.4,0-0.723,0.323-0.723,0.734    c0,0.409,0.323,0.712,0.723,0.712h0.367v32.942C55.043,53.613,54.396,54.281,53.586,54.281z"/></g><g><path d="M16.867,19.159c0-0.411-0.336-0.734-0.734-0.734h-2.182c-0.398,0-0.723,0.323-0.723,0.734    c0,0.409,0.325,0.712,0.723,0.712h2.182C16.531,19.871,16.867,19.568,16.867,19.159z"/></g><g><path d="M31.406,19.871h2.18c0.411,0,0.734-0.303,0.734-0.712c0-0.411-0.323-0.734-0.734-0.734h-2.18    c-0.4,0-0.723,0.323-0.723,0.734C30.683,19.568,31.006,19.871,31.406,19.871z"/></g><g><path d="M28.501,19.159c0-0.411-0.323-0.734-0.734-0.734h-2.18c-0.4,0-0.723,0.323-0.723,0.734c0,0.409,0.323,0.712,0.723,0.712    h2.18C28.178,19.871,28.501,19.568,28.501,19.159z"/></g><g><path d="M19.769,19.871h2.18c0.411,0,0.734-0.303,0.734-0.712c0-0.411-0.323-0.734-0.734-0.734h-2.18    c-0.4,0-0.723,0.323-0.723,0.734C19.047,19.568,19.369,19.871,19.769,19.871z"/></g><g><path d="M43.04,19.871h2.182c0.409,0,0.734-0.303,0.734-0.712c0-0.411-0.325-0.734-0.734-0.734H43.04    c-0.398,0-0.723,0.323-0.723,0.734C42.317,19.568,42.642,19.871,43.04,19.871z"/></g><g><path d="M39.404,18.425h-2.18c-0.4,0-0.725,0.323-0.725,0.734c0,0.409,0.325,0.712,0.725,0.712h2.18    c0.4,0,0.734-0.303,0.734-0.712C40.137,18.748,39.804,18.425,39.404,18.425z"/></g><g><path d="M51.049,18.425h-2.191c-0.398,0-0.723,0.323-0.723,0.734c0,0.409,0.325,0.712,0.723,0.712h2.191    c0.4,0,0.725-0.303,0.725-0.712C51.774,18.748,51.449,18.425,51.049,18.425z"/></g><g><path d="M30.508,33.298h3.972c0.811,0,1.459-0.648,1.459-1.446v-3.994c0-0.798-0.648-1.446-1.459-1.446h-3.972    c-0.798,0-1.457,0.648-1.457,1.446v3.994C29.052,32.65,29.71,33.298,30.508,33.298z M30.508,27.858h3.972l0.011,3.994h-3.983    V27.858z"/></g><g><path d="M21.301,26.412H17.32c-0.8,0-1.457,0.648-1.457,1.446v3.994c0,0.798,0.657,1.446,1.457,1.446h3.981    c0.8,0,1.448-0.648,1.448-1.446v-3.994C22.749,27.06,22.102,26.412,21.301,26.412z M17.32,31.852v-3.994h3.981v3.994H17.32z"/></g><g><path d="M47.671,26.412h-3.972c-0.798,0-1.457,0.648-1.457,1.446v3.994c0,0.798,0.659,1.446,1.457,1.446h3.972    c0.809,0,1.457-0.648,1.457-1.446v-3.994C49.128,27.06,48.48,26.412,47.671,26.412z M43.699,31.852v-3.994h3.972l0.011,3.994    H43.699z"/></g><g><path d="M21.301,40.378H17.32c-0.8,0-1.457,0.648-1.457,1.448v3.992c0,0.8,0.657,1.448,1.457,1.448h3.981    c0.8,0,1.448-0.648,1.448-1.448v-3.992C22.749,41.026,22.102,40.378,21.301,40.378z M17.32,45.819v-3.992h3.981v3.992H17.32z"/></g><g><path d="M47.671,40.378h-3.972c-0.798,0-1.457,0.648-1.457,1.448v3.992c0,0.8,0.659,1.448,1.457,1.448h3.972    c0.809,0,1.457-0.648,1.457-1.448v-3.992C49.128,41.026,48.48,40.378,47.671,40.378z M43.699,45.819v-3.992h3.972l0.011,3.992    H43.699z"/></g><g><path d="M36.985,38.869l0.875-1.707c0.183-0.345,0.053-0.798-0.303-0.97c-0.367-0.195-0.798-0.044-0.981,0.303l-0.789,1.51    c-0.873-0.453-1.868-0.734-2.925-0.734H32.14c-3.411,0-6.185,2.785-6.185,6.196v0.712c0,3.411,2.774,6.196,6.185,6.196h0.723    c3.411,0,6.185-2.785,6.185-6.196v-0.712C39.048,41.632,38.247,39.992,36.985,38.869z M37.591,44.178    c0,2.613-2.127,4.728-4.728,4.728H32.14c-2.613,0-4.728-2.116-4.728-4.728v-0.712c0-2.613,2.116-4.728,4.728-4.728h0.723    c0.809,0,1.576,0.195,2.246,0.561l-2.677,5.137l-1.718-2.633c-0.214-0.345-0.668-0.431-1.004-0.217    c-0.334,0.217-0.431,0.67-0.214,0.995l2.394,3.689c0.13,0.217,0.358,0.347,0.606,0.347c0.011,0,0.033,0,0.033,0    c0.259-0.022,0.495-0.172,0.615-0.411l3.141-6.002c0.809,0.842,1.306,1.987,1.306,3.261V44.178z"/></g></g></svg>