<svg id="Layer_2" height="512" viewBox="0 0 512 512" width="512" xmlns="http://www.w3.org/2000/svg" data-name="Layer 2"><g id="Icon"><path id="_19" d="m362 0h-212c-82.84 0-150 67.16-150 150v212c0 82.84 67.16 150 150 150h212c82.84 0 150-67.16 150-150v-212c0-82.84-67.16-150-150-150zm100 362c0 55.14-44.86 100-100 100h-212c-55.14 0-100-44.86-100-100v-212c0-55.14 44.86-100 100-100h212c55.14 0 100 44.86 100 100zm-93.89-39.79c0 24.87-9.38 44.4-28.12 58.59-18.75 14.19-44.47 21.29-77.15 21.29-23.05 0-43.92-4.13-62.6-12.4-18.69-8.27-32.75-19.6-42.19-33.98-9.44-14.39-14.16-30.96-14.16-49.71h68.75c0 15.23 3.94 26.46 11.82 33.69s20.67 10.84 38.38 10.84c11.33 0 20.28-2.44 26.86-7.32 6.57-4.88 9.86-11.75 9.86-20.61 0-10.03-3.55-17.84-10.64-23.44-7.1-5.6-19.56-11.39-37.4-17.38s-32.42-11.78-43.75-17.38c-36.85-18.1-55.27-42.97-55.27-74.61 0-15.75 4.59-29.65 13.77-41.7 9.18-12.04 22.17-21.42 38.96-28.12 16.8-6.7 35.67-10.06 56.64-10.06s38.77 3.65 54.98 10.94 28.81 17.68 37.79 31.15 13.48 28.88 13.48 46.19h-68.36c0-11.59-3.55-20.57-10.64-26.95-7.1-6.38-16.7-9.57-28.81-9.57s-21.91 2.7-29 8.11c-7.1 5.4-10.64 12.27-10.64 20.61 0 7.29 3.91 13.9 11.72 19.82 7.81 5.93 21.55 12.05 41.21 18.36 19.66 6.32 35.81 13.12 48.44 20.41 30.73 17.71 46.09 42.12 46.09 73.24z" data-name="19"/></g></svg>